<?xml version="1.0" encoding="UTF-8" standalone="no"?>
<svg
   width="553.0733"
   height="562.93427"
   viewBox="0 0 553.0733 562.93427"
   fill="none"
   version="1.1"
   id="svg3"
   xmlns="http://www.w3.org/2000/svg"
   xmlns:svg="http://www.w3.org/2000/svg">
  <g
     id="g1"
     style="filter:url(#filter2)"
     transform="matrix(0.35661414,0,0,0.35661414,-54.970484,-26.757306)">
    <path
       opacity="0.5"
       d="m 984.056,818.268 c -3.904,25.674 18.274,51.245 10.737,77.001 -2.57,6.632 -0.835,22.702 26.667,33.928 18.48,26.75 108.7,44.025 116.67,76.153 5.88,23.65 11.16,52.05 -8.75,77.85 -15.34,19.9 -40.25,34.15 -63.84,45.3 -34.16,16.17 -70.769,27.83 -106.682,33.26 -117.087,17.68 -222.52,-18.87 -306.593,-64.74 C 549.824,1041.13 478.98,957.154 432.832,859.709 413.799,819.523 399.817,777.425 395.923,731.471 c -3.585,-42.311 -1.651,-86.353 4.935,-130.487 8.385,-56.184 26.488,-114.401 62.112,-168.58 27.094,-41.207 69.273,-71.532 117.721,-93.756 66.235,-30.381 134.815,-30.629 188.433,-5.461 33.072,15.523 62.394,47.461 44.368,87.004 -13.751,30.164 -45.741,54.986 -70.911,79.889 -16.821,16.641 -40.292,40.401 -30.509,59.269 16.547,31.915 49.55,56.593 79.948,77.907 38.833,27.228 87.907,41.459 131.97,62.544 25.378,12.143 39.92,33.935 50.809,56.803 8.756,18.386 12.604,39.655 9.257,61.665 z"
       fill="#7928ca"
       id="path1" />
    <path
       opacity="0.15"
       d="m 1188.83,941.734 c 18.7,16.3 47.49,11.419 64.84,30.705 4.23,5.475 17.57,12.291 37.13,-4.237 28.27,-1.278 77.03,-65.514 105.45,-55.531 20.92,7.349 45.34,17.595 57.92,46.923 9.7,22.613 11.22,50.076 10.82,74.886 -0.58,35.95 -5.65,71.56 -15.37,103.42 -31.67,103.88 -101.55,170.57 -170.44,215.19 -83.94,54.38 -177.7,68.78 -272.45,56.3 -39.08,-5.15 -77.691,-15.37 -115.416,-35.73 -34.727,-18.75 -68.677,-42.85 -100.876,-70.77 -41,-35.54 -79.814,-79.99 -108.618,-136.56 -21.916,-43.03 -29.373,-92.71 -28.002,-143.32 1.86,-69.189 28.385,-124.861 69.101,-155.409 25.119,-18.844 61.7,-26.248 85.835,8.582 18.406,26.574 25.505,65.182 35.312,98.313 6.561,22.137 16.138,53.304 34.815,55.034 31.589,2.93 63.886,-11.17 92.519,-24.88 36.58,-17.521 66.92,-49.989 100.69,-74.889 19.46,-14.341 42.29,-14.966 64.55,-12.085 17.89,2.321 36.15,10.086 52.19,24.058 z"
       fill="#0070f3"
       id="path2" />
  </g>
  <defs
     id="defs3">
    <filter
       style="color-interpolation-filters:sRGB"
       id="filter2"
       x="-0.15687721"
       y="-0.15292847"
       width="1.3137544"
       height="1.3058569">
      <feGaussianBlur
         stdDeviation="100"
         result="blur"
         id="feGaussianBlur2" />
    </filter>
  </defs>
</svg>
